<svg width="48" height="48" viewBox="0 0 48 48" fill="none" xmlns="http://www.w3.org/2000/svg">
<rect width="48" height="48" rx="16" fill="#F6F7F9"/>
<path fill-rule="evenodd" clip-rule="evenodd" d="M28.6 13H31.4L31.4463 13C31.6845 12.9999 31.969 12.9998 32.2197 13.0203C32.5101 13.044 32.9261 13.1049 33.362 13.327C33.9265 13.6146 34.3854 14.0736 34.673 14.6381C34.8951 15.0739 34.956 15.4899 34.9797 15.7804C35.0002 16.031 35.0001 16.3155 35 16.5537L35 16.6V17.4L35 17.4463C35.0001 17.6845 35.0002 17.9691 34.9797 18.2197C34.956 18.5101 34.8951 18.9261 34.673 19.362C34.3854 19.9265 33.9265 20.3854 33.362 20.673C32.9261 20.8951 32.5101 20.956 32.2197 20.9798C31.969 21.0002 31.6845 21.0001 31.4463 21L31.4 21H28.6L28.5537 21C28.3155 21.0001 28.031 21.0002 27.7803 20.9798C27.4899 20.956 27.0739 20.8951 26.638 20.673C26.0735 20.3854 25.6146 19.9265 25.327 19.362C25.1049 18.9261 25.044 18.5101 25.0203 18.2197C24.9998 17.969 24.9999 17.6845 25 17.4463L25 17.4V16.6L25 16.5537C24.9999 16.3155 24.9998 16.031 25.0203 15.7804C25.044 15.4899 25.1049 15.0739 25.327 14.6381C25.6146 14.0736 26.0735 13.6146 26.638 13.327C27.0739 13.1049 27.4899 13.044 27.7803 13.0203C28.031 12.9998 28.3155 12.9999 28.5537 13L28.6 13ZM27.109 15.546C27 15.7599 27 16.04 27 16.6V17.4C27 17.9601 27 18.2401 27.109 18.454C27.2049 18.6422 27.3578 18.7952 27.546 18.891C27.7599 19 28.0399 19 28.6 19H31.4C31.96 19 32.2401 19 32.454 18.891C32.6421 18.7952 32.7951 18.6422 32.891 18.454C33 18.2401 33 17.9601 33 17.4001V16.6C33 16.04 33 15.7599 32.891 15.546C32.7951 15.3579 32.6421 15.2049 32.454 15.109C32.2401 15 31.96 15 31.4 15H28.6C28.0399 15 27.7599 15 27.546 15.109C27.3578 15.2049 27.2049 15.3579 27.109 15.546ZM19.4 27H16.6L16.5537 27C16.3155 26.9999 16.031 26.9998 15.7803 27.0203C15.4899 27.044 15.0739 27.1049 14.638 27.327C14.0735 27.6146 13.6146 28.0736 13.327 28.6381C13.1049 29.0739 13.044 29.4899 13.0203 29.7804C12.9998 30.031 12.9999 30.3155 13 30.5537L13 30.6V31.4L13 31.4463C12.9999 31.6845 12.9998 31.969 13.0203 32.2197C13.044 32.5101 13.1049 32.9261 13.327 33.362C13.6146 33.9265 14.0735 34.3854 14.638 34.673C15.0739 34.8951 15.4899 34.956 15.7803 34.9798C16.031 35.0002 16.3154 35.0001 16.5537 35L16.6 35H19.4L19.4463 35C19.6845 35.0001 19.969 35.0002 20.2197 34.9798C20.5101 34.956 20.9261 34.8951 21.362 34.673C21.9265 34.3854 22.3854 33.9265 22.673 33.362C22.8951 32.9261 22.956 32.5101 22.9797 32.2197C23.0002 31.969 23.0001 31.6845 23 31.4463L23 31.4V30.6L23 30.5537C23.0001 30.3155 23.0002 30.031 22.9797 29.7804C22.956 29.4899 22.8951 29.0739 22.673 28.6381C22.3854 28.0736 21.9265 27.6146 21.362 27.327C20.9261 27.1049 20.5101 27.044 20.2197 27.0203C19.969 26.9998 19.6845 26.9999 19.4463 27L19.4 27ZM15 30.6C15 30.04 15 29.7599 15.109 29.546C15.2049 29.3579 15.3578 29.2049 15.546 29.109C15.7599 29 16.0399 29 16.6 29H19.4C19.96 29 20.2401 29 20.454 29.109C20.6421 29.2049 20.7951 29.3579 20.891 29.546C21 29.7599 21 30.04 21 30.6V31.4C21 31.9601 21 32.2401 20.891 32.454C20.7951 32.6422 20.6421 32.7952 20.454 32.891C20.2401 33 19.9601 33 19.4 33H16.6C16.04 33 15.7599 33 15.546 32.891C15.3578 32.7952 15.2049 32.6422 15.109 32.454C15 32.2401 15 31.9601 15 31.4V30.6ZM31.4 23H28.6L28.5537 23C28.3155 22.9999 28.031 22.9998 27.7803 23.0203C27.4899 23.044 27.0739 23.1049 26.638 23.327C26.0735 23.6146 25.6146 24.0736 25.327 24.6381C25.1049 25.0739 25.044 25.4899 25.0203 25.7804C24.9998 26.031 24.9999 26.3155 25 26.5537L25 26.6V31.4L25 31.4463C24.9999 31.6845 24.9998 31.969 25.0203 32.2197C25.044 32.5101 25.1049 32.9261 25.327 33.362C25.6146 33.9265 26.0735 34.3854 26.638 34.673C27.0739 34.8951 27.4899 34.956 27.7803 34.9798C28.031 35.0002 28.3154 35.0001 28.5537 35L28.6 35H31.4L31.4463 35C31.6845 35.0001 31.969 35.0002 32.2197 34.9798C32.5101 34.956 32.9261 34.8951 33.362 34.673C33.9265 34.3854 34.3854 33.9265 34.673 33.362C34.8951 32.9261 34.956 32.5101 34.9797 32.2197C35.0002 31.9691 35.0001 31.6846 35 31.4463L35 31.4V26.6L35 26.5537C35.0001 26.3155 35.0002 26.031 34.9797 25.7804C34.956 25.4899 34.8951 25.0739 34.673 24.6381C34.3854 24.0736 33.9265 23.6146 33.362 23.327C32.9261 23.1049 32.5101 23.044 32.2197 23.0203C31.969 22.9998 31.6845 22.9999 31.4463 23L31.4 23ZM27 26.6C27 26.04 27 25.7599 27.109 25.546C27.2049 25.3579 27.3578 25.2049 27.546 25.109C27.7599 25 28.0399 25 28.6 25H31.4C31.96 25 32.2401 25 32.454 25.109C32.6421 25.2049 32.7951 25.3579 32.891 25.546C33 25.7599 33 26.04 33 26.6V31.4C33 31.9601 33 32.2401 32.891 32.454C32.7951 32.6422 32.6421 32.7952 32.454 32.891C32.2401 33 31.9601 33 31.4 33H28.6C28.04 33 27.7599 33 27.546 32.891C27.3578 32.7952 27.2049 32.6422 27.109 32.454C27 32.2401 27 31.9601 27 31.4V26.6ZM19.4 13H16.6L16.5537 13C16.3155 12.9999 16.031 12.9998 15.7803 13.0203C15.4899 13.044 15.0739 13.1049 14.638 13.327C14.0735 13.6146 13.6146 14.0736 13.327 14.6381C13.1049 15.0739 13.044 15.4899 13.0203 15.7804C12.9998 16.031 12.9999 16.3155 13 16.5537L13 16.6V21.4L13 21.4463C12.9999 21.6845 12.9998 21.969 13.0203 22.2197C13.044 22.5101 13.1049 22.9261 13.327 23.362C13.6146 23.9265 14.0735 24.3854 14.638 24.673C15.0739 24.8951 15.4899 24.956 15.7803 24.9798C16.031 25.0002 16.3155 25.0001 16.5537 25L16.6 25H19.4L19.4463 25C19.6845 25.0001 19.969 25.0002 20.2197 24.9798C20.5101 24.956 20.9261 24.8951 21.362 24.673C21.9265 24.3854 22.3854 23.9265 22.673 23.362C22.8951 22.9261 22.956 22.5101 22.9797 22.2197C23.0002 21.969 23.0001 21.6845 23 21.4463L23 21.4V16.6L23 16.5537C23.0001 16.3155 23.0002 16.031 22.9797 15.7804C22.956 15.4899 22.8951 15.0739 22.673 14.6381C22.3854 14.0736 21.9265 13.6146 21.362 13.327C20.9261 13.1049 20.5101 13.044 20.2197 13.0203C19.969 12.9998 19.6845 12.9999 19.4463 13L19.4 13ZM15 16.6C15 16.04 15 15.7599 15.109 15.546C15.2049 15.3579 15.3578 15.2049 15.546 15.109C15.7599 15 16.0399 15 16.6 15H19.4C19.96 15 20.2401 15 20.454 15.109C20.6421 15.2049 20.7951 15.3579 20.891 15.546C21 15.7599 21 16.04 21 16.6V21.4C21 21.9601 21 22.2401 20.891 22.454C20.7951 22.6422 20.6421 22.7952 20.454 22.891C20.2401 23 19.96 23 19.4 23H16.6C16.0399 23 15.7599 23 15.546 22.891C15.3578 22.7952 15.2049 22.6422 15.109 22.454C15 22.2401 15 21.9601 15 21.4V16.6Z" fill="#212121"/>
</svg>
