<svg width="16" height="16" viewBox="0 0 16 16" fill="none" xmlns="http://www.w3.org/2000/svg">
<path d="M6.88249 0.537853C7.33211 0.842436 7.70856 1.26422 8.00096 1.7924C8.29206 1.26422 8.66851 0.842436 9.11813 0.537853C10.1826 -0.183243 11.5291 -0.106612 12.3395 0.703747C13.1498 1.51411 13.2265 2.86061 12.5054 3.92509C12.4092 4.06706 12.3013 4.20174 12.1821 4.32878L13 4.32828C13.5705 4.32828 14.0781 4.45557 14.5014 4.68869C14.9246 4.9218 15.2636 5.26074 15.4967 5.68402C15.7298 6.1073 15.8571 6.61493 15.8571 7.18542V7.49217C15.8571 8.21142 15.7577 8.59712 15.5709 8.94633C15.3841 9.29553 15.1101 9.56959 14.7609 9.75635C14.6564 9.81222 14.5487 9.86028 14.4297 9.9002L14.4285 12.0942C14.4285 13.3678 14.2959 13.8296 14.0469 14.2952C13.7979 14.7608 13.4325 15.1262 12.9669 15.3752C12.5013 15.6242 12.0394 15.7568 10.7658 15.7568H5.23409C3.96049 15.7568 3.49865 15.6242 3.03304 15.3752C2.56743 15.1262 2.20202 14.7608 1.95301 14.2952C1.704 13.8296 1.57139 13.3678 1.57139 12.0942L1.57093 9.90043C1.45169 9.86047 1.34374 9.81233 1.23906 9.75635C0.889853 9.56959 0.615794 9.29553 0.429036 8.94633C0.257841 8.62622 0.160005 8.27545 0.144887 7.6652L0.142822 7.18542C0.142822 6.61493 0.270119 6.1073 0.503235 5.68402C0.736351 5.26074 1.07529 4.9218 1.49857 4.68869C1.92185 4.45557 2.42947 4.32828 2.99997 4.32828L3.8185 4.32878C3.69929 4.20174 3.59143 4.06706 3.49526 3.92509C2.77416 2.86061 2.85079 1.51411 3.66115 0.703747C4.47151 -0.106612 5.81802 -0.183243 6.88249 0.537853ZM7.28568 10.0422L2.99997 10.0426V12.0942C2.99997 13.0397 3.05557 13.3276 3.21274 13.6215C3.32861 13.8381 3.4901 13.9996 3.70676 14.1155C4.00065 14.2727 4.28858 14.3283 5.23409 14.3283L7.28568 14.3279V10.0422ZM8.71425 10.0422V14.3279L10.7658 14.3283C11.7113 14.3283 11.9993 14.2727 12.2932 14.1155C12.5098 13.9996 12.6713 13.8381 12.7872 13.6215C12.9444 13.3276 13 13.0397 13 12.0942V10.0426L8.71425 10.0422ZM7.28568 5.75648L2.99997 5.75685C2.67255 5.75685 2.40039 5.82292 2.18773 5.94004C2.00127 6.04273 1.85728 6.18672 1.75458 6.37318C1.63746 6.58584 1.57139 6.858 1.57139 7.18542L1.57249 7.6206C1.57912 7.98208 1.61588 8.13632 1.68877 8.27261C1.74238 8.37286 1.81252 8.443 1.91277 8.49661C2.06278 8.57684 2.23452 8.6133 2.68039 8.61398L7.28568 8.61362V5.75648ZM13 5.75685L8.71425 5.75648V8.61362H13.3185L13.4351 8.61289C13.7966 8.60627 13.9509 8.5695 14.0872 8.49661C14.1874 8.443 14.2575 8.37286 14.3112 8.27261C14.3841 8.13632 14.4208 7.98208 14.4274 7.6206L14.4285 7.18542C14.4285 6.858 14.3625 6.58584 14.2453 6.37318C14.1427 6.18672 13.9987 6.04273 13.8122 5.94004C13.5995 5.82292 13.3274 5.75685 13 5.75685ZM8.71425 4.32828C11.3214 4.07843 12.0682 2.39646 11.3571 1.68542C10.6461 0.974377 8.96409 1.72113 8.71425 4.32828ZM4.64352 1.68542C3.93247 2.39646 4.67923 4.07843 7.28637 4.32828C7.03653 1.72113 5.35456 0.974377 4.64352 1.68542Z" fill="#0077FF"/>
</svg>
