<svg width="16" height="16" viewBox="0 0 16 16" fill="none" xmlns="http://www.w3.org/2000/svg">
<path d="M6.88255 0.637767C7.33218 0.94235 7.70862 1.36413 8.00102 1.89232C8.29213 1.36413 8.66857 0.94235 9.11819 0.637767C10.1827 -0.0833281 11.5292 -0.00669765 12.3395 0.803662C13.1499 1.61402 13.2265 2.96053 12.5054 4.025C12.4093 4.16698 12.3014 4.30165 12.1822 4.42869L13 4.42819C13.5705 4.42819 14.0781 4.55549 14.5014 4.7886C14.9247 5.02172 15.2636 5.36066 15.4968 5.78394C15.7299 6.20722 15.8572 6.71484 15.8572 7.28533V7.59208C15.8572 8.31133 15.7577 8.69703 15.571 9.04624C15.3842 9.39545 15.1101 9.66951 14.7609 9.85626C14.6565 9.91213 14.5487 9.96019 14.4298 10.0001L14.4286 12.1941C14.4286 13.4677 14.296 13.9295 14.047 14.3951C13.798 14.8607 13.4326 15.2261 12.967 15.4751C12.5013 15.7242 12.0395 15.8568 10.7659 15.8568H5.23415C3.96055 15.8568 3.49871 15.7242 3.0331 15.4751C2.5675 15.2261 2.20208 14.8607 1.95307 14.3951C1.70406 13.9295 1.57145 13.4677 1.57145 12.1941L1.57099 10.0003C1.45176 9.96038 1.3438 9.91224 1.23912 9.85626C0.889914 9.66951 0.615855 9.39545 0.429097 9.04624C0.257903 8.72613 0.160066 8.37536 0.144948 7.76512L0.142883 7.28533C0.142883 6.71484 0.27018 6.20722 0.503296 5.78394C0.736412 5.36066 1.07535 5.02172 1.49863 4.7886C1.92191 4.55549 2.42953 4.42819 3.00003 4.42819L3.81856 4.42869C3.69936 4.30165 3.59149 4.16698 3.49532 4.025C2.77422 2.96053 2.85085 1.61402 3.66121 0.803662C4.47157 -0.00669765 5.81808 -0.0833281 6.88255 0.637767ZM7.28574 10.1421L3.00003 10.1425V12.1941C3.00003 13.1396 3.05563 13.4275 3.21281 13.7214C3.32867 13.9381 3.49016 14.0995 3.70682 14.2154C4.00071 14.3726 4.28865 14.4282 5.23415 14.4282L7.28574 14.4278V10.1421ZM8.71431 10.1421V14.4278L10.7659 14.4282C11.7114 14.4282 11.9993 14.3726 12.2932 14.2154C12.5099 14.0995 12.6714 13.9381 12.7872 13.7214C12.9444 13.4275 13 13.1396 13 12.1941V10.1425L8.71431 10.1421ZM7.28574 5.85639L3.00003 5.85676C2.67261 5.85676 2.40045 5.92283 2.18779 6.03995C2.00133 6.14264 1.85734 6.28663 1.75464 6.4731C1.63752 6.68576 1.57145 6.95792 1.57145 7.28533L1.57255 7.72051C1.57918 8.082 1.61594 8.23624 1.68883 8.37253C1.74245 8.47278 1.81258 8.54291 1.91283 8.59653C2.06284 8.67675 2.23458 8.71321 2.68045 8.71389L7.28574 8.71354V5.85639ZM13 5.85676L8.71431 5.85639V8.71354H13.3186L13.4352 8.7128C13.7967 8.70618 13.9509 8.66942 14.0872 8.59653C14.1875 8.54291 14.2576 8.47278 14.3112 8.37253C14.3841 8.23624 14.4209 8.082 14.4275 7.72051L14.4286 7.28533C14.4286 6.95792 14.3625 6.68576 14.2454 6.4731C14.1427 6.28663 13.9987 6.14264 13.8123 6.03995C13.5996 5.92283 13.3274 5.85676 13 5.85676ZM8.71431 4.42819C11.3215 4.17835 12.0682 2.49637 11.3572 1.78533C10.6461 1.07429 8.96415 1.82105 8.71431 4.42819ZM4.64358 1.78533C3.93254 2.49637 4.67929 4.17835 7.28643 4.42819C7.03659 1.82105 5.35462 1.07429 4.64358 1.78533Z" fill="#212121"/>
</svg>
