<svg width="60" height="60" viewBox="0 0 60 60" fill="none" xmlns="http://www.w3.org/2000/svg">
<rect x="0.5" y="0.5" width="59" height="59" rx="15.5" fill="white"/>
<rect x="0.5" y="0.5" width="59" height="59" rx="15.5" stroke="#E3E8F2"/>
<path fill-rule="evenodd" clip-rule="evenodd" d="M36.3 16.7H40.5C42.0464 16.7 43.3 17.9536 43.3 19.5V23.7C43.3 25.2463 42.0464 26.5 40.5 26.5H36.3C35.4565 26.5 34.7002 26.127 34.1868 25.537C34.0392 25.3673 33.7736 25.336 33.6146 25.495L31.605 27.5045C31.4738 27.6358 31.4 27.8138 31.4 27.9995V31.8526C31.4 31.9989 31.4459 32.1416 31.5311 32.2605C34.1371 33.7413 35.4662 34.4598 36.0037 34.7448C36.1982 34.848 36.4148 34.9 36.635 34.9H39.1C40.6464 34.9 41.9 36.1536 41.9 37.7V40.5C41.9 42.0463 40.6464 43.3 39.1 43.3H36.3C34.7536 43.3 33.5 42.0463 33.5 40.5V37.7C33.5 37.2567 33.603 36.8375 33.7864 36.465C33.9209 36.1916 34.1125 35.857 33.7548 35.6135L31.4061 34.2902C31.2906 34.1945 31.1401 34.2007 31.0832 34.3319C30.4909 35.696 29.1319 36.65 27.55 36.65H20.55C18.4237 36.65 16.7 34.9262 16.7 32.8V25.8C16.7 23.6737 18.4237 21.95 20.55 21.95H27.55C29.2427 21.95 30.6802 23.0423 31.1961 24.5605C31.2399 24.6891 31.4055 24.7342 31.5016 24.6381L33.295 22.8447C33.4263 22.7134 33.5 22.5354 33.5 22.3497V19.5C33.5 17.9536 34.7536 16.7 36.3 16.7ZM36.3 18.8C35.9134 18.8 35.6 19.1134 35.6 19.5V23.7C35.6 24.0866 35.9134 24.4 36.3 24.4H40.5C40.8866 24.4 41.2 24.0866 41.2 23.7V19.5C41.2 19.1134 40.8866 18.8 40.5 18.8H36.3ZM20.55 24.05C19.5835 24.05 18.8 24.8335 18.8 25.8V32.8C18.8 33.7664 19.5835 34.55 20.55 34.55H27.55C28.5165 34.55 29.3 33.7664 29.3 32.8V25.8C29.3 24.8335 28.5165 24.05 27.55 24.05H20.55ZM35.6 37.7C35.6 37.3134 35.9134 37 36.3 37H39.1C39.4866 37 39.8 37.3134 39.8 37.7V40.5C39.8 40.8865 39.4866 41.2 39.1 41.2H36.3C35.9134 41.2 35.6 40.8865 35.6 40.5V37.7Z" fill="#3D98FF"/>
</svg>
