<svg width="60" height="60" viewBox="0 0 60 60" fill="none" xmlns="http://www.w3.org/2000/svg">
<rect x="0.5" y="0.5" width="59" height="59" rx="15.5" fill="white"/>
<rect x="0.5" y="0.5" width="59" height="59" rx="15.5" stroke="#E3E8F2"/>
<path fill-rule="evenodd" clip-rule="evenodd" d="M20.246 17.7652C20.6034 17.2052 21.3706 17.0295 21.961 17.3506C22.5588 17.6756 22.7729 18.401 22.4117 18.9714C22.4313 18.9391 22.3477 19.0796 22.3122 19.1443C22.2411 19.2738 22.1382 19.4725 22.0221 19.7318C21.7892 20.2517 21.5067 21.0067 21.3184 21.9285C20.943 23.766 20.9434 26.2455 22.4403 28.8817C24.2776 32.1174 24.2601 35.4554 23.8172 37.9247C23.5948 39.1646 23.2616 40.2075 22.9829 40.9434C22.8432 41.3121 22.7164 41.606 22.6226 41.8113C22.5987 41.8636 22.5769 41.9102 22.5576 41.9509L22.5626 41.9532L22.4612 42.1466L22.4598 42.1492L22.4587 42.1515L22.456 42.1564C22.1461 42.7404 21.3976 42.9694 20.7845 42.6955C20.1625 42.4175 19.8832 41.7113 20.1958 41.1131L20.1966 41.1116L20.1996 41.1058L20.2197 41.0654C20.2387 41.0268 20.2681 40.9657 20.3056 40.8836C20.3806 40.7194 20.4876 40.4722 20.6077 40.155C20.8486 39.5191 21.1388 38.611 21.332 37.5339C21.7203 35.3691 21.7029 32.6091 20.2151 29.989C18.387 26.7695 18.3874 23.7164 18.8433 21.4852C19.0706 20.3726 19.4115 19.4593 19.6982 18.8194C19.8418 18.4988 19.9727 18.2448 20.0705 18.0665C20.0923 18.0267 20.1126 17.9906 20.1309 17.9583L20.246 17.7652ZM37.5845 17.7671L37.5856 17.7653C37.943 17.2054 38.7103 17.0295 39.3007 17.3506C39.8984 17.6756 40.1126 18.4009 39.7514 18.9714L39.7502 18.9734L39.7489 18.9755L39.7318 19.0038C39.7148 19.0324 39.6874 19.0796 39.6519 19.1443C39.5808 19.2738 39.4779 19.4725 39.3618 19.7318C39.1289 20.2517 38.8464 21.0067 38.6581 21.9285C38.2827 23.766 38.2831 26.2455 39.78 28.8817C41.6173 32.1174 41.5998 35.4554 41.1569 37.9247C40.9345 39.1646 40.6013 40.2075 40.3226 40.9434C40.1829 41.3121 40.0561 41.606 39.9623 41.8113C39.9154 41.9141 39.8766 41.9949 39.8485 42.0521C39.8344 42.0806 39.823 42.1033 39.8146 42.1199L39.8045 42.1396L39.8009 42.1466L39.7996 42.1491L39.7986 42.151C39.4903 42.7388 38.7392 42.9702 38.1242 42.6955C37.5022 42.4175 37.2229 41.7113 37.5355 41.1131L37.5363 41.1115L37.5384 41.1075L37.5393 41.1058C37.5582 41.0672 37.608 40.9652 37.6453 40.8836C37.7203 40.7194 37.8273 40.4722 37.9474 40.155C38.1882 39.5191 38.4785 38.611 38.6717 37.5339C39.06 35.3691 39.0426 32.6091 37.5548 29.989C35.7267 26.7695 35.7271 23.7164 36.183 21.4852C36.4103 20.3726 36.7512 19.4593 37.0379 18.8194C37.1815 18.4988 37.3124 18.2448 37.4102 18.0665C37.4591 17.9773 37.4999 17.9069 37.5299 17.8563C37.545 17.831 37.5578 17.8101 37.5672 17.7948L37.5788 17.7761L37.5829 17.7697L37.5845 17.7671ZM30.6347 17.3506C30.0443 17.0295 29.2771 17.2052 28.9197 17.7652L28.9183 17.7674L28.9169 17.7697L28.8046 17.9583C28.7863 17.9906 28.766 18.0267 28.7442 18.0665C28.6464 18.2448 28.5155 18.4988 28.3719 18.8194C28.0852 19.4593 27.7443 20.3726 27.517 21.4852C27.0611 23.7164 27.0607 26.7695 28.8888 29.989C30.3766 32.6091 30.394 35.3691 30.0057 37.5339C29.8125 38.611 29.5222 39.5191 29.2814 40.155C29.1613 40.4722 29.0543 40.7194 28.9793 40.8836C28.9418 40.9657 28.8922 41.0672 28.8733 41.1058C28.5607 41.704 28.8362 42.4175 29.4582 42.6955C30.0713 42.9694 30.8198 42.7404 31.1297 42.1564C31.1321 42.1522 31.1336 42.1491 31.1336 42.1491L31.1349 42.1466L31.138 42.1405L31.2363 41.9532L31.2313 41.9509C31.2506 41.9102 31.2724 41.8636 31.2963 41.8113C31.3901 41.606 31.5169 41.3121 31.6566 40.9434C31.9353 40.2075 32.2685 39.1646 32.4909 37.9247C32.9338 35.4554 32.9513 32.1174 31.114 28.8817C29.6171 26.2455 29.6167 23.766 29.9921 21.9285C30.1804 21.0067 30.4629 20.2517 30.6958 19.7318C30.8119 19.4725 30.9148 19.2738 30.9859 19.1443C31.0214 19.0796 31.0473 19.0346 31.0854 18.9714L31.0829 18.9755L31.0842 18.9734L31.0854 18.9714C31.4466 18.401 31.2324 17.6756 30.6347 17.3506Z" fill="#3D98FF"/>
</svg>
