<svg width="20" height="20" viewBox="0 0 20 20" fill="none" xmlns="http://www.w3.org/2000/svg">
<path fill-rule="evenodd" clip-rule="evenodd" d="M8.35116 1.42859C6.60275 1.42859 5.83195 1.5826 5.04959 2.00102C4.35302 2.37355 3.80207 2.92449 3.42954 3.62106C3.01113 4.40342 2.85712 5.17422 2.85712 6.92263V13.0774C2.85712 14.8258 3.01113 15.5966 3.42954 16.379C3.80207 17.0755 4.35302 17.6265 5.04959 17.999C5.83195 18.4174 6.60275 18.5714 8.35116 18.5714H11.6488C13.3972 18.5714 14.168 18.4174 14.9504 17.999C15.6469 17.6265 16.1979 17.0755 16.5704 16.379C16.9888 15.5966 17.1428 14.8258 17.1428 13.0774V8.82774C17.1428 8.25868 17.123 8.00266 17.0557 7.71049C16.989 7.42106 16.8806 7.15958 16.7232 6.90776C16.5642 6.65355 16.3972 6.45849 15.9948 6.0561L12.5153 2.57664C12.1129 2.17425 11.9179 2.00724 11.6637 1.84826C11.4118 1.69078 11.1504 1.58247 10.8609 1.51576C10.6167 1.45947 10.3977 1.43637 9.99997 1.43031V1.42859H8.35116ZM8.35116 2.85716C6.68334 2.85716 6.19525 3.00835 5.7233 3.26075C5.27569 3.50014 4.92867 3.84716 4.68928 4.29478C4.43688 4.76672 4.28569 5.25481 4.28569 6.92263V13.0774C4.28569 14.7452 4.43688 15.2333 4.68928 15.7053C4.92867 16.1529 5.27569 16.4999 5.7233 16.7393C6.19525 16.9917 6.68334 17.1429 8.35116 17.1429H11.6488C13.3166 17.1429 13.8047 16.9917 14.2766 16.7393C14.7243 16.4999 15.0713 16.1529 15.3107 15.7053C15.5631 15.2333 15.7143 14.7452 15.7143 13.0774V8.82774C15.7143 8.72967 15.7137 8.64509 15.7125 8.57114L11.7857 8.57145C10.7995 8.57145 9.99997 7.77195 9.99997 6.78573L10.001 2.85891C9.96234 2.85828 9.92073 2.85783 9.87579 2.85755L8.35116 2.85716ZM11.5052 3.58679L11.4285 3.51073V6.78573C11.4285 6.96106 11.5549 7.10688 11.7215 7.13712L11.7857 7.14287L15.0624 7.14434C15.0379 7.11966 15.012 7.09367 14.9846 7.06625L11.5052 3.58679ZM6.42855 14.2857C6.42855 13.8912 6.74834 13.5714 7.14283 13.5714H9.99997C10.3945 13.5714 10.7143 13.8912 10.7143 14.2857C10.7143 14.6802 10.3945 15 9.99997 15H7.14283C6.74834 15 6.42855 14.6802 6.42855 14.2857ZM7.14283 10.7143C6.74834 10.7143 6.42855 11.0341 6.42855 11.4286C6.42855 11.8231 6.74834 12.1429 7.14283 12.1429H12.1428C12.5373 12.1429 12.8571 11.8231 12.8571 11.4286C12.8571 11.0341 12.5373 10.7143 12.1428 10.7143H7.14283Z" fill="#212121"/>
</svg>
