<svg width="60" height="60" viewBox="0 0 60 60" fill="none" xmlns="http://www.w3.org/2000/svg">
<rect x="0.5" y="0.5" width="59" height="59" rx="15.5" fill="white"/>
<rect x="0.5" y="0.5" width="59" height="59" rx="15.5" stroke="#E3E8F2"/>
<path fill-rule="evenodd" clip-rule="evenodd" d="M27.8 23.5149C27.8244 23.4655 27.8506 23.4168 27.8786 23.3688L30.2342 19.3223C30.6744 18.566 31.4881 18.1001 32.3686 18.1001H37.0798C37.9603 18.1001 38.7739 18.566 39.2142 19.3223L41.5698 23.3688C42.01 24.125 42.01 25.0568 41.5698 25.8131L39.2142 29.8596C39.1862 29.9076 39.1568 29.9545 39.1259 30.0001C39.1568 30.0457 39.1862 30.0926 39.2142 30.1406L41.5698 34.1871C42.01 34.9434 42.01 35.8751 41.5698 36.6314L39.2142 40.6779C38.7739 41.4342 37.9603 41.9001 37.0798 41.9001H32.3686C31.4881 41.9001 30.6744 41.4342 30.2342 40.6779L27.8786 36.6314C27.8506 36.5833 27.8244 36.5345 27.7999 36.4851C27.7441 36.4889 27.6879 36.4908 27.6314 36.4908H22.9202C22.0396 36.4908 21.226 36.0249 20.7858 35.2687L18.4302 31.2221C17.9899 30.4659 17.9899 29.5341 18.4302 28.7778L20.7858 24.7313C21.226 23.975 22.0396 23.5092 22.9201 23.5092H27.6314C27.6879 23.5092 27.7442 23.5111 27.8 23.5149ZM30.1603 25.4057C29.8668 24.9015 29.8668 24.2803 30.1603 23.7761L31.7308 21.0783C32.0243 20.5741 32.5667 20.2635 33.1538 20.2635L36.2947 20.2635C36.8817 20.2635 37.4241 20.5741 37.7177 21.0783L39.2881 23.7761C39.5816 24.2803 39.5816 24.9015 39.2881 25.4057L37.7177 28.1035C37.4241 28.6077 36.8817 28.9183 36.2947 28.9183H33.1538C32.5667 28.9183 32.0243 28.6077 31.7308 28.1035L30.1603 25.4057ZM20.7119 29.1852C20.4184 29.6894 20.4184 30.3106 20.7119 30.8148L22.2824 33.5126C22.5759 34.0167 23.1183 34.3273 23.7054 34.3273H26.8463C27.4333 34.3273 27.9757 34.0167 28.2692 33.5126L29.8397 30.8148C30.1332 30.3106 30.1332 29.6894 29.8397 29.1852L28.2692 26.4874C27.9757 25.9832 27.4333 25.6726 26.8463 25.6726L23.7054 25.6726C23.1183 25.6726 22.5759 25.9832 22.2824 26.4874L20.7119 29.1852ZM30.1603 34.5945C29.8668 35.0986 29.8668 35.7198 30.1603 36.224L31.7308 38.9218C32.0243 39.426 32.5667 39.7366 33.1538 39.7366H36.2947C36.8817 39.7366 37.4241 39.426 37.7177 38.9218L39.2881 36.224C39.5816 35.7198 39.5816 35.0986 39.2881 34.5945L37.7177 31.8967C37.4241 31.3925 36.8817 31.0819 36.2947 31.0819H33.1538C32.5667 31.0819 32.0243 31.3925 31.7308 31.8967L30.1603 34.5945Z" fill="#3D98FF"/>
</svg>
