<svg width="20" height="20" viewBox="0 0 20 20" fill="none" xmlns="http://www.w3.org/2000/svg">
<path d="M16.9544 9.87615V9.79952C16.9544 5.96815 13.8304 2.84412 9.99312 2.84412C6.15586 2.84412 3.03772 5.96815 3.03772 9.79952V9.87615H2.8432V15.4641C2.8432 15.9592 3.24402 16.3659 3.74505 16.3659H6.09102C6.58615 16.3659 6.99287 15.9592 6.99287 15.4641V10.7721C6.99287 10.277 6.58615 9.87026 6.09102 9.87026H4.45238V9.79363C4.44648 6.74032 6.93392 4.25288 9.99312 4.25288C13.0523 4.25288 15.5398 6.74032 15.5398 9.79952V9.87615H13.9011C13.406 9.87615 12.9993 10.2829 12.9993 10.778V14.9571H12.4511C12.3921 13.8667 11.4844 13.0061 10.3822 13.0061C9.2799 13.0061 8.30732 13.9374 8.30732 15.0809C8.30732 16.2244 9.23864 17.1558 10.3822 17.1558C11.0188 17.1558 11.6082 16.8728 12.0031 16.3718H16.2412C16.7363 16.3718 17.143 15.9651 17.143 15.4699V9.88204H16.9485L16.9544 9.87615ZM15.7402 11.2849V14.9571H14.4139V11.2849H15.7402ZM4.25197 14.9571V11.2849H5.57821V14.9571H4.25197ZM11.0482 15.075C11.0482 15.4405 10.7535 15.7411 10.3822 15.7411C10.0108 15.7411 9.71608 15.4464 9.71608 15.075C9.71608 14.7037 10.0108 14.409 10.3822 14.409C10.7535 14.409 11.0482 14.7037 11.0482 15.075Z" fill="#212121"/>
</svg>
