<svg width="48" height="48" viewBox="0 0 48 48" fill="none" xmlns="http://www.w3.org/2000/svg">
<rect width="48" height="48" rx="16" fill="#F6F7F9"/>
<path fill-rule="evenodd" clip-rule="evenodd" d="M24 14C18.4772 14 14 18.4772 14 24C14 29.5228 18.4772 34 24 34C29.5228 34 34 29.5228 34 24C34 18.4772 29.5228 14 24 14ZM12 24C12 17.3726 17.3726 12 24 12C30.6274 12 36 17.3726 36 24C36 30.6274 30.6274 36 24 36C17.3726 36 12 30.6274 12 24ZM23 21.4142L20.7071 23.7071C20.3166 24.0976 19.6834 24.0976 19.2929 23.7071C18.9024 23.3166 18.9024 22.6834 19.2929 22.2929L23.2929 18.2929C23.6834 17.9024 24.3166 17.9024 24.7071 18.2929L28.7071 22.2929C29.0976 22.6834 29.0976 23.3166 28.7071 23.7071C28.3166 24.0976 27.6834 24.0976 27.2929 23.7071L25 21.4142V29C25 29.5523 24.5523 30 24 30C23.4477 30 23 29.5523 23 29V21.4142Z" fill="#212121"/>
</svg>
