<svg width="48" height="48" viewBox="0 0 48 48" fill="none" xmlns="http://www.w3.org/2000/svg">
<rect width="48" height="48" rx="16" fill="#F6F7F9"/>
<path fill-rule="evenodd" clip-rule="evenodd" d="M31 31C32.6569 31 34 29.6569 34 28V17C34 15.3431 32.6569 14 31 14H20C18.3431 14 17 15.3431 17 17L17 28C17 29.6569 18.3431 31 20 31L31 31ZM31 29L25.5 29L20 29C19.4477 29 19 28.5523 19 28L19 17C19 16.4477 19.4477 16 20 16L31 16C31.5523 16 32 16.4477 32 17V28C32 28.5523 31.5523 29 31 29ZM27 35C28.3063 35 29.4175 34.1651 29.8293 32.9999L20.1278 33C18.3447 33 17.6982 32.8143 17.0463 32.4657C16.3945 32.1171 15.8829 31.6055 15.5343 30.9537C15.1857 30.3018 15 29.6552 15 27.8722L15.0001 19.1707C13.8348 19.5825 13 20.6937 13 22V29C13 32.3137 15.6863 35 19 35L27 35ZM22.2933 24.2905C21.9022 24.6816 21.9022 25.3156 22.2933 25.7067C22.6844 26.0978 23.3184 26.0978 23.7095 25.7067L27.4972 21.919V24.1662C27.4972 24.7193 27.9455 25.1676 28.4986 25.1676C29.0517 25.1676 29.5 24.7193 29.5 24.1662V19.5024L29.5 19.4922C29.4976 19.2399 29.4006 18.9883 29.2088 18.7954L29.2067 18.7933L29.2046 18.7912C29.1091 18.6962 28.9992 18.6245 28.8819 18.576C28.7665 18.5281 28.6403 18.5012 28.5078 18.5L28.4976 18.5L23.8338 18.5C23.2807 18.5 22.8324 18.9483 22.8324 19.5014C22.8324 20.0545 23.2807 20.5028 23.8338 20.5028L26.081 20.5028L22.2933 24.2905Z" fill="#212121"/>
</svg>
